. 
  
http://www.torrenting.com/        :     Greatest Movie Tracker on The Net!!!
 
http://www.Torrenting.com          :     Once & For all ;)


               www . Torrenting . Com 

(((((((((((((= Enjoy No RAR releases =))))))))))))))))))))


...................................NFO:....................................

.[pre][center][IMG]http://lookpic.com/c1/i2/43/tCUpXPDG.jpeg[/IMG]

[color=red][size=4][b]The Fighter (2010) BDRip 720P XViD AC3 DiVERSiTY[/b][/size][/color][/center]

[info]
[color=red][b]General[/b][/color]
Format                           : AVI
Format/Info                      : Audio Video Interleave
Format profile                   : OpenDML
Format settings                  : rec
File size                        : 2.39 GiB
Duration                         : 1h 55mn
Overall bit rate                 : 2 953 Kbps
Writing application              : AVI-Mux GUI 1.17.8.3, Feb 16 201019:42:50
Source                           : The Fighter 2010 BluRay 1080p AVC DTS-HD MA5.1 DIY-wq561103@beAst

[color=red][b]Video[/b][/color]
Format                           : MPEG-4 Visual
Format profile                   : Advanced Simple@L5
Format settings, BVOP            : 4
Format settings, QPel            : No
Format settings, GMC             : 3 warppoints
Format settings, Matrix          : Default (H.263)
Codec ID                         : XVID
Codec ID/Hint                    : XviD
Duration                         : 1h 55mn
Bit rate                         : 2 500 Kbps
Width                            : 1 280 pixels
Height                           : 528 pixels
Display aspect ratio             : 2.40:1
Frame rate                       : 23.976 fps
Color space                      : YUV
Chroma subsampling               : 4:2:0
Bit depth                        : 8 bits
Scan type                        : Progressive
Compression mode                 : Lossy
Bits/(Pixel*Frame)               : 0.154
Stream size                      : 2.02 GiB (85%)
Writing library                  : XviD 1.2.1 (UTC 2008-12-04)

[color=red][b]Audio[/b][/color]
Format                           : AC-3
Format/Info                      : Audio Coding 3
Mode extension                   : CM (complete main)
Codec ID                         : 2000
Duration                         : 1h 55mn
Bit rate mode                    : Constant
Bit rate                         : 448 Kbps
Channel(s)                       : 6 channels
Channel positions                : Front: L C R, Side: L R, LFE
Sampling rate                    : 48.0 KHz
Bit depth                        : 16 bits
Compression mode                 : Lossy
Stream size                      : 371 MiB (15%)
Alignment                        : Aligned on interleaves
Interleave, duration             : 64 ms (1.53 video frames)
Interleave, preload duration     : 192 ms

Subtitle                         : English, French, Spanish (soft subs)
IMDb                             : http://www.imdb.com/title/tt0964517/

[cast]
Mark Wahlberg                    : Micky Ward
Christian Bale                   : Dicky Eklund
Amy Adams                        : Charlene Fleming
Melissa Leo                      : Alice Ward
Mickey O'Keefe                   : Himself
Jack McGee                       : George Ward

[plot]
A look at the early years of boxer "Irish" Micky Ward and his
brother who helped train him before going pro in the mid 1980s.

[note]

[color=red][b]Sample Included.

Enjoy!

Don't forget to thank the uploader.

Greets to:[/b][/color]

TOXiC, FLAWL3SS, DiGiTAL iNK, iNiTiALanIme, RDX, Zia, Merwais, Smelly,
Hibees,Toon, Tinners, 202122, PureDarkness, mgw012, Skrufern...

... and everyone who spends their own time and cash to share and make P2P great. :clap:

[screens]
[center][IMG]http://lookpic.com/c1/i2/2022/vQTaijsq.png[/IMG]
[IMG]http://lookpic.com/c1/i2/3000/C7lUBg1O.png[/IMG]
[IMG]http://lookpic.com/c1/i2/1028/1HE03Pzf.png[/IMG]
[IMG]http://lookpic.com/c1/i2/417/G9ANz46q.png[/IMG][/center][/pre]